<?xml version="1.0"?>
<svg style="enable-background:new 0 0 48 48;" version="1.1" viewBox="0 0 48 48" xml:space="preserve" xmlns="http://www.w3.org/2000/svg" xmlns:xlink="http://www.w3.org/1999/xlink">
	<style type="text/css">
	.st0{fill:none;stroke:#505050;stroke-width:2;stroke-linejoin:round;stroke-miterlimit:10;}
	.st1{fill:none;stroke:#505050;stroke-width:2;stroke-miterlimit:10;}
	.st2{fill:none;stroke:#505050;stroke-width:2;stroke-linecap:round;stroke-miterlimit:10;}
	.st3{fill:none;stroke:#505050;stroke-width:2;stroke-linecap:round;stroke-linejoin:round;stroke-miterlimit:10;}
</style>
	<g id="_x34_8x48" />
	<g id="icons">
		<g>
			<path class="st0" d="M1,36V9c0-2.2,1.8-4,4-4c2.2,0,4,1.8,4,4v26" />
			<path class="st3" d="M40.3,36.9C39.5,36.5,39,35.7,39,35c0-2.6,3.6-3.8,5.9-2.4c1.2,0.8,2.1,2.1,2.1,3.4c0,3.1-2.6,5-6,5H7    c-3.4,0-6-1.9-6-5c0-1.3,0.9-2.6,2.1-3.4C5.4,31.2,9,32.4,9,35c0,0.7-0.5,1.5-1.3,1.9" />
			<path class="st0" d="M47,36V9c0-2.2-1.8-4-4-4c-2.2,0-4,1.8-4,4v26" />
			<line class="st0" x1="9" x2="39" y1="11" y2="11" />
		</g>
	</g>
</svg>