<?xml version="1.0" encoding="utf-8"?>
<!-- Generator: Adobe Illustrator 23.0.3, SVG Export Plug-In . SVG Version: 6.00 Build 0)  -->
<svg version="1.1" id="圖層_1" xmlns="http://www.w3.org/2000/svg" xmlns:xlink="http://www.w3.org/1999/xlink" x="0px" y="0px"
	 viewBox="0 0 48 48" style="enable-background:new 0 0 48 48;" xml:space="preserve">
<style type="text/css">
	.st0{fill:none;stroke:#505050;stroke-width:2;stroke-linejoin:round;stroke-miterlimit:10;}
	.st1{fill:none;stroke:#505050;stroke-width:2;stroke-linecap:round;stroke-linejoin:round;stroke-miterlimit:10;}
	.st2{fill:#FFFFFF;stroke:#505050;stroke-width:2;stroke-linecap:round;stroke-linejoin:round;stroke-miterlimit:10;}
</style>
<path class="st0" d="M47,36V9c0-2.2-1.8-4-4-4s-4,1.8-4,4v26"/>
<path class="st1" d="M40.3,36.9C39.5,36.5,39,35.7,39,35c0-2.6,3.6-3.8,5.9-2.4c1.2,0.8,2.1,2.1,2.1,3.4c0,3.1-2.6,5-6,5H7
	c-3.4,0-6-1.9-6-5c0-1.3,0.9-2.6,2.1-3.4C5.4,31.2,9,32.4,9,35c0,0.7-0.5,1.5-1.3,1.9"/>
<path class="st1" d="M40.3,36.9C39.5,36.5,39,35.7,39,35c0-2.6,3.6-3.8,5.9-2.4c1.2,0.8,2.1,2.1,2.1,3.4c0,3.1-2.6,5-6,5H7
	c-3.4,0-6-1.9-6-5"/>
<line class="st0" x1="9" y1="9" x2="39" y2="9"/>
<path class="st0" d="M1,36V9c0-2.2,1.8-4,4-4s4,1.8,4,4v26"/>
<path class="st2" d="M1,36c0-1.3,0.9-2.6,2.1-3.4C8.3,29.7,16,35,16,35V4c0,0-3-3-7.5-3C3.3,1,1,6.8,1,9V36z"/>
<path class="st2" d="M1,36c0-1.3,0.9-2.6,2.1-3.4C8.3,29.7,25,35,25,35V4c0,0-10.1-3-14-3C4.7,1,1,6.8,1,9V36z"/>
</svg>
